# xmcd
#
# Track frame offsets:
#	150
#	13332
#	31836
#	49475
#	68540
#	84612
#	105608
#	125533
#	141563
#	152470
#	169247
#	189100
#	208864
#	224680
#	246554
#
# Disc length: 3532 seconds
#
# Revision: 1
# Processed by: cddbd v1.5.2PL0 Copyright (c) Steve Scherf et al.
# Submitted via: audiograbber 1.83.01
#
DISCID=e00dca0f
DTITLE=Country - CB60154
DYEAR=1998
DGENRE=Karaoke
TTITLE0=I'm Not That Lonely Yet
TTITLE1=Ring On Her Finger, Time On Her Hands
TTITLE2=It's Not Over
TTITLE3=For Herself
TTITLE4=And Still
TTITLE5=On My Own
TTITLE6=Everything That You Want
TTITLE7=Red Roses
TTITLE8=Before I Met You
TTITLE9=So, So Long
TTITLE10=Silly Me
TTITLE11=She Thinks His Name Was John
TTITLE12=Company Time
TTITLE13=The Woman In Me
TTITLE14=One Solitary Tear
EXTD=
EXTT0=
EXTT1=
EXTT2=
EXTT3=
EXTT4=
EXTT5=
EXTT6=
EXTT7=
EXTT8=
EXTT9=
EXTT10=
EXTT11=
EXTT12=
EXTT13=
EXTT14=
PLAYORDER=
